<svg width="98" height="98" viewBox="0 0 98 98" fill="none" xmlns="http://www.w3.org/2000/svg">
<circle cx="49" cy="49" r="49" fill="#FBAF17"/>
<circle cx="49" cy="49" r="38.8621" fill="white"/>
<path d="M66.4006 43.4317L52.8281 42.3877L54.8292 34.6096C55.3512 32.2953 54.7613 30.9668 52.8742 30.3813L49.8561 29.5243C49.7847 29.5054 49.7091 29.5097 49.6402 29.5366C49.5714 29.5635 49.513 29.6116 49.4733 29.674L38.2499 47.2781C38.1877 47.3793 38.1006 47.463 37.9968 47.521C37.8931 47.579 37.7763 47.6095 37.6574 47.6096H28.1193V65.7044H38.3517C38.8006 65.7043 39.2466 65.7766 39.6724 65.9185L46.3107 68.131C47.0205 68.3677 47.7637 68.4884 48.5119 68.4885H63.9923C65.6454 68.4885 66.7329 67.3123 67.0574 65.6905L69.8807 53.3135V46.9118C69.8807 44.9925 68.3146 43.6057 66.4006 43.4317Z" fill="#828282"/>
</svg>
