<svg width="209" height="35" viewBox="0 0 209 35" fill="none" xmlns="http://www.w3.org/2000/svg">
<g id="Group 20">
<path id="Vector" d="M27.5479 34.0909C27.3024 34.0918 27.0629 34.0141 26.8635 33.8686L17.4896 26.9622L8.11572 33.8686C7.91545 34.0163 7.67418 34.0953 7.42678 34.0944C7.17939 34.0935 6.93869 34.0126 6.73948 33.8636C6.54027 33.7145 6.39289 33.5049 6.31862 33.265C6.24436 33.0252 6.24707 32.7676 6.32636 32.5294L9.98233 21.5246L0.507138 14.9211C0.301899 14.7782 0.146997 14.5724 0.0650632 14.3337C-0.0168703 14.0949 -0.0215406 13.8359 0.0517347 13.5943C0.12501 13.3527 0.272391 13.1412 0.472343 12.9908C0.672295 12.8404 0.91434 12.7589 1.16311 12.7582H12.8526L16.3803 1.7252C16.4563 1.487 16.6045 1.27939 16.8038 1.13214C17.0031 0.984892 17.2432 0.905579 17.4896 0.905579C17.736 0.905579 17.9761 0.984892 18.1754 1.13214C18.3746 1.27939 18.5229 1.487 18.5989 1.7252L22.1266 12.7619H33.8161C34.0652 12.7618 34.3077 12.8427 34.5083 12.9928C34.7088 13.143 34.8568 13.3544 34.9306 13.5962C35.0043 13.838 34.9999 14.0974 34.9181 14.3365C34.8362 14.5756 34.6812 14.7817 34.4757 14.9248L24.9969 21.5246L28.6506 32.5265C28.7098 32.7046 28.7265 32.8945 28.6992 33.0804C28.672 33.2664 28.6015 33.4431 28.4938 33.5959C28.3861 33.7487 28.2441 33.8733 28.0796 33.9594C27.9151 34.0455 27.7329 34.0905 27.5479 34.0909Z" fill="#FBAF17"/>
<path id="Vector_2" d="M71.5006 34.0909C71.2552 34.0918 71.0157 34.0141 70.8162 33.8686L61.4424 26.9622L52.0685 33.8686C51.8682 34.0163 51.6269 34.0953 51.3795 34.0944C51.1321 34.0935 50.8914 34.0126 50.6922 33.8636C50.493 33.7145 50.3456 33.5049 50.2714 33.265C50.1971 33.0252 50.1998 32.7676 50.2791 32.5294L53.9351 21.5246L44.4599 14.9211C44.2547 14.7782 44.0998 14.5724 44.0178 14.3337C43.9359 14.0949 43.9312 13.8359 44.0045 13.5943C44.0778 13.3527 44.2251 13.1412 44.4251 12.9908C44.6251 12.8404 44.8671 12.7589 45.1159 12.7582H56.8053L60.333 1.7252C60.409 1.487 60.5573 1.27939 60.7566 1.13214C60.9559 0.984892 61.196 0.905579 61.4424 0.905579C61.6888 0.905579 61.9288 0.984892 62.1281 1.13214C62.3274 1.27939 62.4757 1.487 62.5517 1.7252L66.0794 12.7619H77.7688C78.0179 12.7618 78.2605 12.8427 78.4611 12.9928C78.6616 13.143 78.8096 13.3544 78.8833 13.5962C78.9571 13.838 78.9527 14.0974 78.8708 14.3365C78.789 14.5756 78.6339 14.7817 78.4285 14.9248L68.9496 21.5246L72.6034 32.5265C72.6626 32.7046 72.6793 32.8945 72.652 33.0804C72.6247 33.2664 72.5543 33.4431 72.4466 33.5959C72.3388 33.7487 72.1969 33.8733 72.0324 33.9594C71.8679 34.0455 71.6856 34.0905 71.5006 34.0909Z" fill="#FBAF17"/>
<path id="Vector_3" d="M114.557 34.0909C114.311 34.0918 114.072 34.0141 113.872 33.8686L104.498 26.9622L95.1244 33.8686C94.9241 34.0163 94.6828 34.0953 94.4354 34.0944C94.1881 34.0935 93.9474 34.0126 93.7481 33.8636C93.5489 33.7145 93.4016 33.5049 93.3273 33.265C93.253 33.0252 93.2557 32.7676 93.335 32.5294L96.991 21.5246L87.5158 14.9211C87.3106 14.7782 87.1557 14.5724 87.0737 14.3337C86.9918 14.0949 86.9871 13.8359 87.0604 13.5943C87.1337 13.3527 87.2811 13.1412 87.481 12.9908C87.681 12.8404 87.923 12.7589 88.1718 12.7582H99.8613L103.389 1.7252C103.465 1.487 103.613 1.27939 103.813 1.13214C104.012 0.984892 104.252 0.905579 104.498 0.905579C104.745 0.905579 104.985 0.984892 105.184 1.13214C105.383 1.27939 105.532 1.487 105.608 1.7252L109.135 12.7619H120.825C121.074 12.7618 121.316 12.8427 121.517 12.9928C121.718 13.143 121.865 13.3544 121.939 13.5962C122.013 13.838 122.009 14.0974 121.927 14.3365C121.845 14.5756 121.69 14.7817 121.484 14.9248L112.006 21.5246L115.659 32.5265C115.719 32.7046 115.735 32.8945 115.708 33.0804C115.681 33.2664 115.61 33.4431 115.502 33.5959C115.395 33.7487 115.253 33.8733 115.088 33.9594C114.924 34.0455 114.742 34.0905 114.557 34.0909Z" fill="#FBAF17"/>
<path id="Vector_4" d="M157.612 34.0909C157.367 34.0918 157.127 34.0141 156.928 33.8686L147.554 26.9622L138.18 33.8686C137.98 34.0163 137.739 34.0953 137.491 34.0944C137.244 34.0935 137.003 34.0126 136.804 33.8636C136.605 33.7145 136.457 33.5049 136.383 33.265C136.309 33.0252 136.312 32.7676 136.391 32.5294L140.047 21.5246L130.572 14.9211C130.366 14.7782 130.211 14.5724 130.13 14.3337C130.048 14.0949 130.043 13.8359 130.116 13.5943C130.189 13.3527 130.337 13.1412 130.537 12.9908C130.737 12.8404 130.979 12.7589 131.228 12.7582H142.917L146.445 1.7252C146.521 1.487 146.669 1.27939 146.868 1.13214C147.068 0.984892 147.308 0.905579 147.554 0.905579C147.8 0.905579 148.041 0.984892 148.24 1.13214C148.439 1.27939 148.587 1.487 148.663 1.7252L152.191 12.7619H163.881C164.13 12.7618 164.372 12.8427 164.573 12.9928C164.773 13.143 164.921 13.3544 164.995 13.5962C165.069 13.838 165.064 14.0974 164.983 14.3365C164.901 14.5756 164.746 14.7817 164.54 14.9248L155.061 21.5246L158.715 32.5265C158.774 32.7046 158.791 32.8945 158.764 33.0804C158.736 33.2664 158.666 33.4431 158.558 33.5959C158.451 33.7487 158.309 33.8733 158.144 33.9594C157.98 34.0455 157.797 34.0905 157.612 34.0909Z" fill="#FBAF17"/>
<path id="Vector_5" d="M201.565 34.0909C201.32 34.0918 201.08 34.0141 200.881 33.8686L191.507 26.9622L182.133 33.8686C181.933 34.0163 181.691 34.0953 181.444 34.0944C181.197 34.0935 180.956 34.0126 180.757 33.8636C180.557 33.7145 180.41 33.5049 180.336 33.265C180.262 33.0252 180.264 32.7676 180.344 32.5294L184 21.5246L174.524 14.9211C174.319 14.7782 174.164 14.5724 174.082 14.3337C174 14.0949 173.996 13.8359 174.069 13.5943C174.142 13.3527 174.29 13.1412 174.49 12.9908C174.69 12.8404 174.932 12.7589 175.18 12.7582H186.87L190.397 1.7252C190.473 1.487 190.622 1.27939 190.821 1.13214C191.02 0.984892 191.26 0.905579 191.507 0.905579C191.753 0.905579 191.993 0.984892 192.193 1.13214C192.392 1.27939 192.54 1.487 192.616 1.7252L196.144 12.7619H207.833C208.082 12.7618 208.325 12.8427 208.526 12.9928C208.726 13.143 208.874 13.3544 208.948 13.5962C209.022 13.838 209.017 14.0974 208.935 14.3365C208.853 14.5756 208.698 14.7817 208.493 14.9248L199.014 21.5246L202.668 32.5265C202.727 32.7046 202.744 32.8945 202.716 33.0804C202.689 33.2664 202.619 33.4431 202.511 33.5959C202.403 33.7487 202.261 33.8733 202.097 33.9594C201.932 34.0455 201.75 34.0905 201.565 34.0909Z" fill="#FBAF17"/>
</g>
</svg>
