<svg width="57" height="57" viewBox="0 0 57 57" fill="none" xmlns="http://www.w3.org/2000/svg">
<circle cx="28.5" cy="28.5" r="28.5" fill="#FBAF17"/>
<circle cx="28.5" cy="28.5" r="22.6034" fill="white"/>
<g clip-path="url(#clip0_4_106)">
<path d="M38.0819 25.3168V19.3358C38.0828 19.0498 38.0257 18.7665 37.914 18.502C37.8022 18.2376 37.638 17.9973 37.4307 17.7949C37.2233 17.5925 36.977 17.432 36.7059 17.3226C36.4347 17.2131 36.1441 17.157 35.8506 17.1573H29.7157C29.3134 17.1581 28.9277 17.3134 28.6422 17.5896L16.3774 29.5365C15.9591 29.9454 15.7242 30.4992 15.7242 31.0765C15.7242 31.6538 15.9591 32.2076 16.3774 32.6165L22.2163 38.3058C22.6358 38.7134 23.2041 38.9424 23.7966 38.9424C24.3891 38.9424 24.9574 38.7134 25.3769 38.3058L37.6382 26.3627C37.9217 26.0846 38.0811 25.7087 38.0819 25.3168ZM33.2909 23.3814C32.9751 23.3814 32.6663 23.2902 32.4037 23.1192C32.1411 22.9482 31.9364 22.7052 31.8155 22.4209C31.6946 22.1365 31.663 21.8237 31.7246 21.5218C31.7862 21.22 31.9383 20.9427 32.1617 20.7251C32.385 20.5075 32.6696 20.3593 32.9794 20.2993C33.2891 20.2392 33.6102 20.27 33.9021 20.3878C34.1939 20.5056 34.4433 20.705 34.6188 20.9609C34.7942 21.2168 34.8879 21.5177 34.8879 21.8254C34.8879 22.2381 34.7196 22.6339 34.4202 22.9257C34.1207 23.2175 33.7145 23.3814 33.2909 23.3814Z" fill="#828282"/>
<path d="M40.4773 19.4914C40.2656 19.4914 40.0625 19.5733 39.9127 19.7193C39.763 19.8652 39.6788 20.0631 39.6788 20.2694V26.4629L26.638 39.1699C26.5607 39.2414 26.4989 39.3273 26.4563 39.4224C26.4136 39.5176 26.3909 39.6201 26.3895 39.724C26.3882 39.8278 26.4082 39.9308 26.4483 40.027C26.4885 40.1232 26.548 40.2106 26.6233 40.2841C26.6987 40.3575 26.7884 40.4155 26.8871 40.4546C26.9858 40.4937 27.0916 40.5132 27.1982 40.5119C27.3048 40.5105 27.41 40.4884 27.5076 40.4469C27.6053 40.4053 27.6934 40.3451 27.7668 40.2698L40.8421 27.5298C40.9812 27.3936 41.0912 27.2319 41.1656 27.054C41.2401 26.8761 41.2775 26.6856 41.2758 26.4935V20.2694C41.2758 20.0631 41.1917 19.8652 41.042 19.7193C40.8922 19.5733 40.6891 19.4914 40.4773 19.4914Z" fill="#828282"/>
</g>
<defs>
<clipPath id="clip0_4_106">
<rect width="25.5517" height="24.8966" fill="white" transform="translate(15.7241 16.3793)"/>
</clipPath>
</defs>
</svg>
