<svg width="200" height="200" viewBox="0 0 200 200" fill="none" xmlns="http://www.w3.org/2000/svg">
<g clip-path="url(#clip0_57_6)">
<mask id="mask0_57_6" style="mask-type:alpha" maskUnits="userSpaceOnUse" x="0" y="0" width="200" height="200">
<circle cx="100" cy="100" r="100" fill="white"/>
</mask>
<g mask="url(#mask0_57_6)">
<circle cx="100" cy="100" r="96.5" fill="#1F2860" stroke="#FBAF17" stroke-width="7"/>
<path d="M51.2193 58.562V42H93.5168V92.4143C93.5168 101.049 91.4489 107.374 87.2923 111.348C83.1356 115.322 76.3054 117.32 66.7597 117.32C58.8015 117.32 52.5979 116.404 48.1279 114.532L47 99.0932H47.6266C52.3681 100.612 56.8172 101.361 60.9947 101.361C64.7754 101.361 67.3446 100.57 68.7232 98.9892C70.1017 97.4079 70.791 94.3285 70.791 89.7303V58.562H51.2193Z" fill="white"/>
<path d="M98.7546 153.073L97.2089 135.886H97.8355C100.3 137.052 103.538 138.05 107.506 138.862C111.475 139.694 114.942 140.089 117.909 140.089C125.386 140.089 129.125 138.175 129.125 134.326C129.125 132.62 128.331 131.184 126.765 130.061C125.177 128.937 123.193 128.105 120.791 127.585C118.389 127.064 115.82 126.295 113.063 125.275C110.326 124.256 107.736 123.028 105.334 121.613C102.932 120.219 100.948 117.993 99.3603 114.976C97.7728 111.959 97 108.297 97 103.969C97 97.0406 99.5483 91.3188 104.666 86.7829C109.783 82.2471 116.989 80 126.326 80C130.504 80 134.66 80.3329 138.775 80.9779C142.89 81.6229 145.982 82.3928 148.029 83.2874L149.47 99.6414H148.843C142.869 97.4567 136.979 96.354 131.151 96.354C123.736 96.354 120.039 98.1641 120.039 101.805C120.039 103.179 120.645 104.323 121.835 105.259C123.026 106.195 124.593 106.924 126.514 107.465C128.436 108.006 130.566 108.588 132.885 109.212C135.224 109.837 137.543 110.648 139.841 111.688C142.138 112.729 144.248 113.998 146.17 115.558C148.091 117.098 149.658 119.241 150.848 121.988C152.039 124.734 152.645 127.959 152.645 131.663C152.645 134.617 152.123 137.489 151.099 140.318C150.076 143.127 148.446 145.832 146.211 148.454C143.976 151.054 140.739 153.156 136.478 154.737C132.217 156.318 127.245 157.109 121.564 157.109C117.24 157.109 112.749 156.693 108.091 155.882C103.454 155.028 100.321 154.092 98.7546 153.073Z" fill="white"/>
</g>
</g>
<defs>
<clipPath id="clip0_57_6">
<rect width="200" height="200" fill="white"/>
</clipPath>
</defs>
</svg>
