<svg width="145" height="51" viewBox="0 0 145 51" fill="none" xmlns="http://www.w3.org/2000/svg">
<g id="Frame" clip-path="url(#clip0_7_2)">
<g id="Group">
<g id="Group_2">
<g id="Group_3">
<path id="Vector" d="M1.15995 21.4731V16.9199H12.7882V30.7796C12.7882 33.1534 12.2197 34.8923 11.077 35.9849C9.93426 37.0774 8.05651 37.6265 5.43226 37.6265C3.24443 37.6265 1.53895 37.3748 0.310087 36.86L0 32.6158H0.17227C1.47578 33.0333 2.6989 33.2392 3.84737 33.2392C4.88674 33.2392 5.59305 33.0219 5.97204 32.5872C6.35104 32.1524 6.54053 31.3059 6.54053 30.0417V21.4731H1.15995Z" fill="#1F2860"/>
<path id="Vector_2" d="M15.7283 34.572C15.7283 33.571 16.0326 32.8045 16.6471 32.2669C17.2615 31.7292 18.1114 31.4603 19.2082 31.4603C21.5855 31.4603 22.7741 32.4957 22.7741 34.572C22.7741 36.6084 21.597 37.6265 19.2369 37.6265C18.1056 37.6265 17.2385 37.3634 16.6356 36.8372C16.0326 36.3052 15.7283 35.5502 15.7283 34.572Z" fill="#1F2860"/>
<path id="Vector_3" d="M30.6986 36.5797L30.2737 31.855H30.4459C31.1235 32.1753 32.0136 32.4499 33.1046 32.6729C34.1957 32.9017 35.1489 33.0104 35.9643 33.0104C38.0201 33.0104 39.048 32.4842 39.048 31.426C39.048 30.9569 38.8298 30.5622 38.3991 30.2534C37.9627 29.9445 37.4171 29.7157 36.7568 29.5727C36.0964 29.4297 35.3901 29.218 34.6321 28.9377C33.8798 28.6575 33.1678 28.32 32.5074 27.931C31.8471 27.5478 31.3015 26.9357 30.8651 26.1063C30.4287 25.2769 30.2162 24.2702 30.2162 23.0804C30.2162 21.1756 30.9168 19.6026 32.3237 18.3556C33.7305 17.1087 35.7117 16.4909 38.2785 16.4909C39.427 16.4909 40.5697 16.5824 41.7009 16.7597C42.8322 16.9371 43.682 17.1487 44.2448 17.3947L44.641 21.8906H44.4687C42.8264 21.29 41.2071 20.9869 39.605 20.9869C37.5664 20.9869 36.55 21.4845 36.55 22.4855C36.55 22.863 36.7166 23.1776 37.0439 23.4351C37.3712 23.6925 37.8019 23.8927 38.3302 24.0414C38.8585 24.1901 39.4442 24.3503 40.0816 24.5219C40.7247 24.6935 41.3621 24.9165 41.9938 25.2025C42.6254 25.4886 43.2054 25.8375 43.7337 26.2665C44.262 26.6898 44.6927 27.2789 45.02 28.034C45.3473 28.789 45.5138 29.6756 45.5138 30.6938C45.5138 31.506 45.3703 32.2954 45.0889 33.0733C44.8075 33.8455 44.3596 34.5892 43.7452 35.3099C43.1308 36.0249 42.2407 36.6026 41.0693 37.0373C39.8978 37.4721 38.5311 37.6894 36.9692 37.6894C35.7806 37.6894 34.546 37.575 33.2654 37.3519C31.9906 37.1174 31.1293 36.86 30.6986 36.5797Z" fill="#1F2860"/>
<path id="Vector_4" d="M45.8067 37.2604L53.0191 16.9199H60.2889L67.3922 37.2604H60.9148L59.6974 33.3822H53.3866L52.2266 37.2604H45.8067ZM56.499 21.8106L54.3513 29.3096H58.7672L56.5334 21.8106H56.499Z" fill="#1F2860"/>
<path id="Vector_5" d="M82.6726 31.1743V16.9199H87.9613V37.2604H80.324L74.4668 23.6238H74.3232V37.2604H69.0632V16.9199H77.068L82.7932 31.0713L82.6726 31.1743Z" fill="#1F2860"/>
<path id="Vector_6" d="M89.9137 21.6961V16.9142H107.342V21.6961H101.852V37.2547H95.5699V21.6961H89.9137V21.6961Z" fill="#1F2860"/>
<path id="Vector_7" d="M117.896 37.6837C116.03 37.6837 114.422 37.3977 113.073 36.82C111.723 36.2423 110.684 35.4529 109.949 34.4462C109.214 33.4394 108.674 32.3412 108.335 31.1514C107.996 29.9616 107.824 28.6632 107.824 27.2446C107.824 24.0185 108.703 21.4216 110.454 19.4482C112.205 17.4748 114.841 16.4909 118.35 16.4909C120.182 16.4909 121.755 16.7655 123.076 17.3089C124.396 17.858 125.424 18.6188 126.159 19.6026C126.894 20.5807 127.434 21.6676 127.773 22.8573C128.112 24.0471 128.284 25.3684 128.284 26.8156C128.284 28.2857 128.095 29.647 127.716 30.9054C127.337 32.1581 126.757 33.3079 125.976 34.3432C125.195 35.3785 124.115 36.1965 122.737 36.7914C121.353 37.3863 119.739 37.6837 117.896 37.6837ZM115.163 31.6262C115.777 32.57 116.73 33.039 118.034 33.039C119.337 33.039 120.296 32.5414 120.922 31.5404C121.543 30.5394 121.858 28.9949 121.858 26.9014C121.858 24.9566 121.583 23.5094 121.037 22.5599C120.492 21.6104 119.55 21.1299 118.206 21.1299C116.868 21.1299 115.875 21.6218 115.22 22.5999C114.571 23.5781 114.244 25.111 114.244 27.1817C114.244 29.2066 114.548 30.6881 115.163 31.6262Z" fill="#1F2860"/>
<path id="Vector_8" d="M130.173 36.5797L129.748 31.855H129.921C130.598 32.1753 131.488 32.4499 132.579 32.6729C133.67 32.9017 134.624 33.0104 135.439 33.0104C137.495 33.0104 138.523 32.4842 138.523 31.426C138.523 30.9569 138.304 30.5622 137.874 30.2534C137.437 29.9445 136.892 29.7157 136.231 29.5727C135.571 29.4297 134.865 29.218 134.107 28.9377C133.355 28.6575 132.642 28.32 131.982 27.931C131.322 27.5478 130.776 26.9357 130.34 26.1063C129.903 25.2769 129.691 24.2702 129.691 23.0804C129.691 21.1756 130.391 19.6026 131.798 18.3556C133.205 17.1087 135.186 16.4909 137.753 16.4909C138.902 16.4909 140.044 16.5824 141.176 16.7597C142.307 16.9371 143.157 17.1487 143.719 17.3947L144.116 21.8906H143.943C142.301 21.29 140.682 20.9869 139.08 20.9869C137.041 20.9869 136.025 21.4845 136.025 22.4855C136.025 22.863 136.191 23.1776 136.519 23.4351C136.846 23.6925 137.277 23.8927 137.805 24.0414C138.333 24.1901 138.919 24.3503 139.556 24.5219C140.199 24.6935 140.831 24.9165 141.468 25.2025C142.1 25.4886 142.68 25.8375 143.208 26.2665C143.737 26.6898 144.167 27.2789 144.495 28.034C144.822 28.789 144.989 29.6756 144.989 30.6938C144.989 31.506 144.845 32.2954 144.564 33.0733C144.282 33.8455 143.834 34.5892 143.22 35.3099C142.605 36.0249 141.715 36.6026 140.544 37.0373C139.373 37.4721 138.006 37.6894 136.444 37.6894C135.255 37.6894 134.021 37.575 132.74 37.3519C131.465 37.1174 130.604 36.86 130.173 36.5797Z" fill="#1F2860"/>
</g>
</g>
<g id="Group_4">
<g id="Group_5">
<path id="Vector_9" d="M42.4589 50.9256V47.3906H43.9519C44.1874 47.3906 44.4056 47.4192 44.6066 47.4821C44.8075 47.5451 44.9913 47.6366 45.1521 47.7624C45.3129 47.8883 45.4449 48.0599 45.5368 48.283C45.6287 48.506 45.6746 48.7577 45.6746 49.0494C45.6746 49.3812 45.6229 49.6729 45.5253 49.9189C45.4277 50.1648 45.2842 50.3593 45.1061 50.5023C44.9224 50.6453 44.7157 50.7483 44.4802 50.8169C44.2448 50.8856 43.9806 50.9199 43.6935 50.9199H42.4589V50.9256ZM43.55 50.1591H43.7395C44.2792 50.1591 44.5434 49.8102 44.5434 49.1066C44.5434 48.9293 44.5262 48.7749 44.486 48.649C44.4458 48.5232 44.4056 48.426 44.3539 48.363C44.3022 48.3001 44.2333 48.2486 44.1414 48.2143C44.0495 48.18 43.9749 48.1571 43.906 48.1514C43.8428 48.1457 43.7567 48.14 43.6533 48.14H43.5385V50.1591H43.55Z" fill="#FBAF17"/>
<path id="Vector_10" d="M49.5335 50.9256V47.3906H51.997V48.1743H50.6245V48.7863H51.7902V49.5185H50.6245V50.1305H51.997V50.9199H49.5335V50.9256Z" fill="#FBAF17"/>
<path id="Vector_11" d="M55.8214 50.8055L55.7467 49.9818H55.7754C55.896 50.039 56.0453 50.0848 56.2348 50.1248C56.4243 50.1649 56.5908 50.182 56.7286 50.182C57.0847 50.182 57.2627 50.0905 57.2627 49.9075C57.2627 49.8274 57.2225 49.7588 57.1478 49.7016C57.0732 49.6501 56.9756 49.61 56.8607 49.5814C56.7459 49.5586 56.6253 49.5185 56.4932 49.4727C56.3611 49.4213 56.2405 49.3641 56.1257 49.3011C56.0109 49.2325 55.9132 49.1295 55.8386 48.9865C55.7639 48.8435 55.7237 48.6662 55.7237 48.4603C55.7237 48.1285 55.8443 47.854 56.0912 47.6423C56.3382 47.425 56.6827 47.3163 57.1249 47.3163C57.3259 47.3163 57.5211 47.3334 57.7221 47.362C57.9173 47.3906 58.0666 47.4307 58.1642 47.4707L58.2331 48.2544H58.2044C57.9173 48.1514 57.6359 48.0942 57.3603 48.0942C57.0043 48.0942 56.832 48.18 56.832 48.3573C56.832 48.4203 56.8607 48.4775 56.9181 48.5232C56.9756 48.569 57.0502 48.6033 57.1421 48.6319C57.234 48.6605 57.3373 48.6834 57.4464 48.7177C57.5555 48.7463 57.6704 48.7863 57.7795 48.8378C57.8886 48.8893 57.992 48.9465 58.0838 49.0209C58.1757 49.0952 58.2504 49.1982 58.3078 49.3297C58.3652 49.4613 58.3939 49.6158 58.3939 49.7931C58.3939 49.9361 58.371 50.0734 58.3193 50.2049C58.2676 50.3422 58.1929 50.468 58.0838 50.5939C57.9747 50.7197 57.8197 50.817 57.6187 50.8913C57.4177 50.9657 57.1766 51.0057 56.9067 51.0057C56.6999 51.0057 56.4875 50.9886 56.2635 50.9485C56.0511 50.897 55.9018 50.857 55.8214 50.8055Z" fill="#FBAF17"/>
<path id="Vector_12" d="M62.1896 50.9256V47.3906H63.6826C63.9181 47.3906 64.1363 47.4192 64.3373 47.4821C64.5382 47.5451 64.722 47.6366 64.8828 47.7624C65.0436 47.8883 65.1756 48.0599 65.2675 48.283C65.3594 48.506 65.4053 48.7577 65.4053 49.0494C65.4053 49.3812 65.3537 49.6729 65.256 49.9189C65.1584 50.1648 65.0149 50.3593 64.8368 50.5023C64.6531 50.6453 64.4464 50.7483 64.2109 50.8169C63.9755 50.8856 63.7113 50.9199 63.4242 50.9199H62.1896V50.9256ZM63.2807 50.1591H63.4702C64.0099 50.1591 64.2741 49.8102 64.2741 49.1066C64.2741 48.9293 64.2569 48.7749 64.2167 48.649C64.1765 48.5232 64.1363 48.426 64.0846 48.363C64.0329 48.3001 63.964 48.2486 63.8721 48.2143C63.7802 48.18 63.7056 48.1571 63.6367 48.1514C63.5735 48.1457 63.4874 48.14 63.384 48.14H63.2692V50.1591H63.2807Z" fill="#FBAF17"/>
<path id="Vector_13" d="M69.2699 50.9256V47.3906H71.7334V48.1743H70.361V48.7863H71.5267V49.5185H70.361V50.1305H71.7334V50.9199H69.2699V50.9256Z" fill="#FBAF17"/>
<path id="Vector_14" d="M80.0196 50.9256V50.1706H80.5192V48.5232H79.9622L80.0139 47.7967H80.5135L80.5594 47.3906H81.5815V50.1706H82.0179V50.9256H80.0196Z" fill="#FBAF17"/>
<path id="Vector_15" d="M85.917 50.8169L85.8538 50.0047H85.8825C86.1467 50.1248 86.4223 50.1877 86.7094 50.1877C86.9678 50.1877 87.1516 50.1248 87.2492 50.0047C87.3468 49.8846 87.4158 49.7015 87.4387 49.467C87.2435 49.6443 87.0195 49.7301 86.7554 49.7301C86.3994 49.7301 86.1295 49.6272 85.9457 49.427C85.7619 49.221 85.6701 48.9522 85.6701 48.6204C85.6701 48.2029 85.8022 47.8825 86.0663 47.6595C86.3304 47.4364 86.6692 47.3277 87.0827 47.3277C87.5593 47.3277 87.9211 47.4707 88.168 47.751C88.4092 48.037 88.5355 48.4317 88.5355 48.9465C88.5355 50.3078 87.9842 50.9885 86.876 50.9885C86.474 50.9885 86.1524 50.9313 85.917 50.8169ZM87.0827 49.0037C87.3181 49.0037 87.433 48.8378 87.433 48.5117C87.433 48.22 87.3181 48.077 87.0942 48.077C86.853 48.077 86.7382 48.2372 86.7382 48.5518C86.7324 48.8492 86.8473 49.0037 87.0827 49.0037Z" fill="#FBAF17"/>
<path id="Vector_16" d="M92.136 48.6719V47.3906H94.8751V48.1342L93.8816 50.9256H92.7045L93.6864 48.1857H92.9973V48.6033L92.136 48.6719Z" fill="#FBAF17"/>
<path id="Vector_17" d="M100.043 47.322C100.526 47.322 100.899 47.4707 101.163 47.7681C101.427 48.0656 101.559 48.5232 101.559 49.1352C101.559 49.7701 101.421 50.2335 101.151 50.5366C100.882 50.8341 100.497 50.9885 100.003 50.9885C99.5206 50.9885 99.1474 50.8398 98.889 50.5424C98.6248 50.2449 98.4985 49.7816 98.4985 49.1524C98.4985 48.5403 98.6363 48.0827 98.9119 47.7796C99.1876 47.4764 99.5666 47.322 100.043 47.322ZM99.6929 49.9761C99.7618 50.1305 99.8652 50.2049 100.014 50.2049C100.164 50.2049 100.273 50.1305 100.348 49.9818C100.422 49.8331 100.457 49.5528 100.457 49.1467C100.457 48.7463 100.422 48.4717 100.348 48.323C100.273 48.1742 100.169 48.0999 100.02 48.0999C99.8766 48.0999 99.7733 48.1742 99.6986 48.323C99.624 48.4717 99.5895 48.7348 99.5895 49.1123C99.5953 49.5413 99.6297 49.8273 99.6929 49.9761Z" fill="#FBAF17"/>
</g>
</g>
<g id="Group_6">
<g id="Group_7">
<path id="Vector_18" d="M1.98685 10.685V2.2594H7.85553V4.12414H4.58814V5.58847H7.36743V7.33309H4.58814V8.79742H7.85553V10.685H1.98685Z" fill="#1F2860"/>
<path id="Vector_19" d="M8.96955 10.685V2.2594H11.5708V8.7631H14.7349V10.685H8.96955Z" fill="#1F2860"/>
<path id="Vector_20" d="M15.8144 10.6851V2.25942H21.6831V4.12416H18.4157V5.58849H21.195V7.33311H18.4157V8.79744H21.6831V10.6851H15.8144ZM17.5486 1.67598L18.8177 0H21.6314L19.5584 1.67598H17.5486Z" fill="#1F2860"/>
<path id="Vector_21" d="M22.1769 4.24426V2.2594H29.3951V4.23854H27.1211V10.685H24.5198V4.24426H22.1769Z" fill="#1F2860"/>
<path id="Vector_22" d="M32.8175 10.685H30.2162V2.2594H33.943C35.1432 2.2594 36.0217 2.47676 36.5615 2.91721C37.107 3.35193 37.3769 4.02118 37.3769 4.90778C37.3769 5.97743 36.9061 6.77252 35.9701 7.28733L37.8478 10.685H35.0111L33.5468 7.76781H32.8175V10.685ZM32.8175 6.17764H33.5698C33.9143 6.17764 34.2014 6.08039 34.4254 5.89163C34.6493 5.69715 34.7642 5.41115 34.7642 5.02791C34.7642 4.61606 34.6723 4.33578 34.4828 4.19278C34.2933 4.04978 34.0234 3.97542 33.6616 3.97542H32.8175V6.17764V6.17764Z" fill="#1F2860"/>
<path id="Vector_23" d="M41.1841 2.2594V10.685H38.6058V2.2594H41.1841Z" fill="#1F2860"/>
<path id="Vector_24" d="M47.093 8.89472C47.7419 8.89472 48.3965 8.76888 49.0511 8.50576H49.12L48.9191 10.4391C48.6951 10.5478 48.3506 10.6451 47.8912 10.7309C47.4318 10.8167 46.9954 10.8567 46.5704 10.8567C45.1119 10.8567 44.0208 10.4735 43.3088 9.70125C42.591 8.93476 42.235 7.90515 42.235 6.62386C42.235 5.27393 42.6082 4.17568 43.349 3.33483C44.0897 2.49398 45.1808 2.07642 46.6164 2.07642C47.4146 2.07642 48.1381 2.19654 48.787 2.43678L48.9994 4.42736H48.9305C48.2644 4.18712 47.6213 4.06699 46.9954 4.06699C46.3695 4.06699 45.8699 4.25576 45.4909 4.62756C45.1119 5.00508 44.9224 5.60569 44.9224 6.44082C44.9224 7.19014 45.1061 7.78503 45.4736 8.21975C45.8412 8.67736 46.3809 8.89472 47.093 8.89472Z" fill="#1F2860"/>
<path id="Vector_25" d="M49.367 10.685L52.353 2.2594H55.362L58.302 10.685H55.6204L55.115 9.0777H52.5023L52.0199 10.685H49.367ZM53.7943 4.29002L52.9042 7.39601H54.7303L53.8058 4.29002H53.7943Z" fill="#1F2860"/>
</g>
</g>
<path id="Vector_26" d="M144.007 48.7062H111.281V49.61H144.007V48.7062Z" fill="#FBAF17"/>
<path id="Vector_27" d="M33.7593 48.7062H1.03362V49.61H33.7593V48.7062Z" fill="#FBAF17"/>
</g>
</g>
<defs>
<clipPath id="clip0_7_2">
<rect width="145" height="51" fill="white"/>
</clipPath>
</defs>
</svg>
