<svg width="22" height="22" viewBox="0 0 22 22" fill="none" xmlns="http://www.w3.org/2000/svg">
<g id="logo-instagram">
<path id="Vector" d="M15.0103 2.97902C16.073 2.9822 17.0913 3.40577 17.8428 4.15724C18.5942 4.9087 19.0178 5.927 19.021 6.98973V15.0103C19.0178 16.073 18.5942 17.0913 17.8428 17.8428C17.0913 18.5942 16.073 19.0178 15.0103 19.021H6.98973C5.927 19.0178 4.9087 18.5942 4.15724 17.8428C3.40577 17.0913 2.9822 16.073 2.97902 15.0103V6.98973C2.9822 5.927 3.40577 4.9087 4.15724 4.15724C4.9087 3.40577 5.927 2.9822 6.98973 2.97902H15.0103ZM15.0103 1.375H6.98973C3.90156 1.375 1.375 3.90156 1.375 6.98973V15.0103C1.375 18.0984 3.90156 20.625 6.98973 20.625H15.0103C18.0984 20.625 20.625 18.0984 20.625 15.0103V6.98973C20.625 3.90156 18.0984 1.375 15.0103 1.375Z" fill="white"/>
<path id="Vector_2" d="M16.2134 6.98975C15.9754 6.98975 15.7428 6.91918 15.545 6.78698C15.3471 6.65478 15.1929 6.46688 15.1019 6.24704C15.0108 6.02719 14.987 5.78529 15.0334 5.5519C15.0798 5.31852 15.1944 5.10414 15.3627 4.93588C15.5309 4.76762 15.7453 4.65304 15.9787 4.60661C16.2121 4.56019 16.454 4.58402 16.6738 4.67508C16.8937 4.76614 17.0816 4.92035 17.2138 5.1182C17.346 5.31605 17.4165 5.54867 17.4165 5.78662C17.4169 5.94471 17.386 6.10132 17.3256 6.24744C17.2653 6.39356 17.1767 6.52633 17.0649 6.63812C16.9531 6.74991 16.8203 6.83851 16.6742 6.89886C16.5281 6.9592 16.3715 6.99009 16.2134 6.98975ZM11 7.79154C11.6346 7.79154 12.2549 7.97972 12.7825 8.33227C13.3102 8.68482 13.7214 9.18592 13.9642 9.77219C14.2071 10.3585 14.2706 11.0036 14.1468 11.626C14.023 12.2483 13.7175 12.82 13.2687 13.2688C12.82 13.7175 12.2483 14.023 11.6259 14.1468C11.0036 14.2706 10.3584 14.2071 9.77217 13.9643C9.1859 13.7214 8.6848 13.3102 8.33225 12.7826C7.9797 12.2549 7.79153 11.6346 7.79153 11C7.79244 10.1494 8.13076 9.3338 8.73227 8.73229C9.33378 8.13078 10.1493 7.79245 11 7.79154ZM11 6.18752C10.0482 6.18752 9.11773 6.46977 8.32632 6.99857C7.53491 7.52738 6.91808 8.27899 6.55383 9.15836C6.18959 10.0377 6.09428 11.0054 6.27997 11.9389C6.46566 12.8724 6.92401 13.7299 7.59705 14.403C8.27009 15.076 9.1276 15.5344 10.0611 15.72C10.9947 15.9057 11.9623 15.8104 12.8417 15.4462C13.721 15.0819 14.4726 14.4651 15.0015 13.6737C15.5303 12.8823 15.8125 11.9518 15.8125 11C15.8125 9.72367 15.3055 8.49959 14.403 7.59707C13.5004 6.69455 12.2764 6.18752 11 6.18752Z" fill="white"/>
</g>
</svg>
