<svg width="22" height="22" viewBox="0 0 22 22" fill="none" xmlns="http://www.w3.org/2000/svg">
<g id="logo-whatsapp">
<path id="Vector" fill-rule="evenodd" clip-rule="evenodd" d="M17.8204 4.17231C16.9306 3.28203 15.8734 2.57654 14.7098 2.09647C13.5462 1.6164 12.2991 1.37122 11.0404 1.37504C5.75781 1.37504 1.4575 5.65387 1.45535 10.9141C1.45301 12.5891 1.89453 14.2348 2.73496 15.6836L1.375 20.625L6.45605 19.2986C7.86252 20.0605 9.43694 20.4593 11.0365 20.4588H11.0404C16.3225 20.4588 20.6224 16.1795 20.625 10.9197C20.6282 9.66525 20.3819 8.42269 19.9004 7.26431C19.4189 6.10594 18.7119 5.05489 17.8204 4.17231ZM11.0404 18.8487H11.037C9.61098 18.8491 8.21094 18.4675 6.98242 17.7436L6.69152 17.5717L3.67641 18.3589L4.48121 15.4331L4.29172 15.1323C3.49438 13.87 3.07194 12.4072 3.07355 10.9141C3.07355 6.5429 6.64898 2.98637 11.0434 2.98637C13.1514 2.98261 15.1747 3.81633 16.668 5.30416C18.1614 6.79199 19.0027 8.81208 19.0068 10.9201C19.0051 15.2918 15.4314 18.8487 11.0404 18.8487ZM15.4099 12.9109C15.1705 12.7914 13.9919 12.2148 13.7736 12.1353C13.5554 12.0558 13.3942 12.0158 13.2348 12.2547C13.0754 12.4936 12.6161 13.0282 12.4764 13.1893C12.3368 13.3504 12.1971 13.3681 11.9578 13.2486C11.7184 13.1291 10.9463 12.8778 10.0315 12.0657C9.31949 11.4336 8.8391 10.6533 8.69945 10.4148C8.5598 10.1763 8.68441 10.047 8.8043 9.9284C8.91215 9.82141 9.04363 9.64997 9.16352 9.51075C9.2834 9.37153 9.32336 9.27184 9.40285 9.11286C9.48234 8.95387 9.44281 8.81465 9.38309 8.69563C9.32336 8.57661 8.84426 7.40313 8.64488 6.92575C8.45023 6.46082 8.25301 6.52399 8.10605 6.51669C7.96641 6.50981 7.80527 6.50809 7.64672 6.50809C7.52551 6.51125 7.40625 6.53936 7.29639 6.59066C7.18653 6.64197 7.08843 6.71537 7.0082 6.80629C6.78863 7.0452 6.16988 7.6227 6.16988 8.79489C6.16988 9.96708 7.02926 11.1014 7.14785 11.2604C7.26645 11.4194 8.83652 13.827 11.2389 14.8595C11.685 15.0505 12.1408 15.2181 12.6045 15.3614C13.1781 15.5427 13.7002 15.5174 14.1127 15.4559C14.5729 15.3876 15.5306 14.8793 15.7296 14.3224C15.9285 13.7655 15.9289 13.2886 15.8692 13.1893C15.8095 13.09 15.6496 13.0299 15.4099 12.9109Z" fill="white"/>
</g>
</svg>
