<svg width="145" height="51" viewBox="0 0 145 51" fill="none" xmlns="http://www.w3.org/2000/svg">
<g id="Frame" clip-path="url(#clip0_7_183)">
<g id="Group">
<g id="Group_2">
<g id="Group_3">
<path id="Vector" d="M1.15995 21.4731V16.9199H12.7882V30.7796C12.7882 33.1534 12.2197 34.8923 11.077 35.9849C9.93426 37.0774 8.05651 37.6265 5.43226 37.6265C3.24443 37.6265 1.53895 37.3748 0.310087 36.86L0 32.6158H0.17227C1.47578 33.0333 2.6989 33.2392 3.84737 33.2392C4.88674 33.2392 5.59305 33.0219 5.97204 32.5872C6.35104 32.1524 6.54053 31.3059 6.54053 30.0417V21.4731H1.15995Z" fill="white"/>
<path id="Vector_2" d="M15.7283 34.5722C15.7283 33.5711 16.0326 32.8047 16.6471 32.267C17.2615 31.7293 18.1114 31.4604 19.2082 31.4604C21.5855 31.4604 22.7741 32.4958 22.7741 34.5722C22.7741 36.6085 21.597 37.6267 19.2369 37.6267C18.1056 37.6267 17.2385 37.3635 16.6356 36.8373C16.0326 36.3053 15.7283 35.5503 15.7283 34.5722Z" fill="white"/>
<path id="Vector_3" d="M30.6986 36.5798L30.2737 31.855H30.4459C31.1235 32.1754 32.0136 32.4499 33.1046 32.673C34.1957 32.9018 35.1489 33.0105 35.9643 33.0105C38.0201 33.0105 39.048 32.4842 39.048 31.426C39.048 30.957 38.8298 30.5623 38.3991 30.2534C37.9627 29.9445 37.4171 29.7157 36.7568 29.5727C36.0964 29.4297 35.3901 29.2181 34.6321 28.9378C33.8798 28.6575 33.1678 28.32 32.5074 27.9311C31.8471 27.5478 31.3015 26.9358 30.8651 26.1064C30.4287 25.277 30.2162 24.2702 30.2162 23.0805C30.2162 21.1757 30.9168 19.6027 32.3237 18.3557C33.7305 17.1087 35.7117 16.491 38.2785 16.491C39.427 16.491 40.5697 16.5825 41.7009 16.7598C42.8322 16.9371 43.682 17.1488 44.2448 17.3947L44.641 21.8907H44.4687C42.8264 21.2901 41.2071 20.9869 39.605 20.9869C37.5664 20.9869 36.55 21.4846 36.55 22.4856C36.55 22.8631 36.7166 23.1777 37.0439 23.4351C37.3712 23.6925 37.8019 23.8927 38.3302 24.0414C38.8585 24.1902 39.4442 24.3503 40.0816 24.5219C40.7247 24.6935 41.3621 24.9166 41.9938 25.2026C42.6254 25.4886 43.2054 25.8375 43.7337 26.2665C44.262 26.6898 44.6927 27.279 45.02 28.034C45.3473 28.7891 45.5138 29.6757 45.5138 30.6939C45.5138 31.5061 45.3703 32.2955 45.0889 33.0734C44.8075 33.8456 44.3596 34.5892 43.7452 35.3099C43.1308 36.025 42.2407 36.6027 41.0693 37.0374C39.8978 37.4721 38.5311 37.6895 36.9692 37.6895C35.7806 37.6895 34.546 37.5751 33.2654 37.352C31.9906 37.1175 31.1293 36.8601 30.6986 36.5798Z" fill="white"/>
<path id="Vector_4" d="M45.8067 37.2604L53.0191 16.9199H60.2889L67.3922 37.2604H60.9148L59.6974 33.3822H53.3866L52.2266 37.2604H45.8067ZM56.499 21.8106L54.3513 29.3096H58.7672L56.5334 21.8106H56.499Z" fill="white"/>
<path id="Vector_5" d="M82.6726 31.1743V16.9199H87.9613V37.2604H80.324L74.4668 23.6238H74.3232V37.2604H69.0632V16.9199H77.068L82.7932 31.0713L82.6726 31.1743Z" fill="white"/>
<path id="Vector_6" d="M89.9137 21.6963V16.9143H107.342V21.6963H101.852V37.2548H95.5699V21.6963H89.9137Z" fill="white"/>
<path id="Vector_7" d="M117.896 37.6838C116.03 37.6838 114.422 37.3978 113.073 36.82C111.723 36.2423 110.684 35.4529 109.949 34.4462C109.214 33.4395 108.674 32.3412 108.335 31.1515C107.996 29.9617 107.824 28.6632 107.824 27.2447C107.824 24.0186 108.703 21.4217 110.454 19.4482C112.205 17.4748 114.841 16.491 118.35 16.491C120.182 16.491 121.755 16.7655 123.076 17.3089C124.396 17.8581 125.424 18.6188 126.159 19.6027C126.894 20.5808 127.434 21.6676 127.773 22.8574C128.112 24.0472 128.284 25.3685 128.284 26.8157C128.284 28.2857 128.095 29.6471 127.716 30.9055C127.337 32.1582 126.757 33.3079 125.976 34.3433C125.195 35.3786 124.115 36.1965 122.737 36.7914C121.353 37.3863 119.739 37.6838 117.896 37.6838ZM115.163 31.6262C115.777 32.57 116.73 33.0391 118.034 33.0391C119.337 33.0391 120.296 32.5414 120.922 31.5404C121.543 30.5394 121.858 28.995 121.858 26.9015C121.858 24.9566 121.583 23.5095 121.037 22.5599C120.492 21.6104 119.55 21.1299 118.206 21.1299C116.868 21.1299 115.875 21.6219 115.22 22.6C114.571 23.5781 114.244 25.1111 114.244 27.1817C114.244 29.2066 114.548 30.6881 115.163 31.6262Z" fill="white"/>
<path id="Vector_8" d="M130.173 36.5798L129.748 31.855H129.921C130.598 32.1754 131.488 32.4499 132.579 32.673C133.67 32.9018 134.624 33.0105 135.439 33.0105C137.495 33.0105 138.523 32.4842 138.523 31.426C138.523 30.957 138.304 30.5623 137.874 30.2534C137.437 29.9445 136.892 29.7157 136.231 29.5727C135.571 29.4297 134.865 29.2181 134.107 28.9378C133.355 28.6575 132.642 28.32 131.982 27.9311C131.322 27.5478 130.776 26.9358 130.34 26.1064C129.903 25.277 129.691 24.2702 129.691 23.0805C129.691 21.1757 130.391 19.6027 131.798 18.3557C133.205 17.1087 135.186 16.491 137.753 16.491C138.902 16.491 140.044 16.5825 141.176 16.7598C142.307 16.9371 143.157 17.1488 143.719 17.3947L144.116 21.8907H143.943C142.301 21.2901 140.682 20.9869 139.08 20.9869C137.041 20.9869 136.025 21.4846 136.025 22.4856C136.025 22.8631 136.191 23.1777 136.519 23.4351C136.846 23.6925 137.277 23.8927 137.805 24.0414C138.333 24.1902 138.919 24.3503 139.556 24.5219C140.199 24.6935 140.831 24.9166 141.468 25.2026C142.1 25.4886 142.68 25.8375 143.208 26.2665C143.737 26.6898 144.167 27.279 144.495 28.034C144.822 28.7891 144.989 29.6757 144.989 30.6939C144.989 31.5061 144.845 32.2955 144.564 33.0734C144.282 33.8456 143.834 34.5892 143.22 35.3099C142.605 36.025 141.715 36.6027 140.544 37.0374C139.373 37.4721 138.006 37.6895 136.444 37.6895C135.255 37.6895 134.021 37.5751 132.74 37.352C131.465 37.1175 130.604 36.8601 130.173 36.5798Z" fill="white"/>
</g>
</g>
<g id="Group_4">
<g id="Group_5">
<path id="Vector_9" d="M42.4589 50.9259V47.3909H43.9519C44.1874 47.3909 44.4056 47.4195 44.6066 47.4824C44.8075 47.5453 44.9913 47.6368 45.1521 47.7627C45.3129 47.8885 45.4449 48.0601 45.5368 48.2832C45.6287 48.5063 45.6746 48.758 45.6746 49.0497C45.6746 49.3814 45.6229 49.6732 45.5253 49.9191C45.4277 50.1651 45.2842 50.3596 45.1061 50.5026C44.9224 50.6456 44.7157 50.7485 44.4802 50.8172C44.2448 50.8858 43.9806 50.9201 43.6935 50.9201H42.4589V50.9259ZM43.55 50.1594H43.7395C44.2792 50.1594 44.5434 49.8105 44.5434 49.1069C44.5434 48.9296 44.5262 48.7751 44.486 48.6493C44.4458 48.5234 44.4056 48.4262 44.3539 48.3633C44.3022 48.3004 44.2333 48.2489 44.1414 48.2146C44.0495 48.1802 43.9749 48.1574 43.906 48.1516C43.8428 48.1459 43.7567 48.1402 43.6533 48.1402H43.5385V50.1594H43.55Z" fill="#FBAF17"/>
<path id="Vector_10" d="M49.5335 50.9259V47.3909H51.997V48.1745H50.6245V48.7866H51.7902V49.5187H50.6245V50.1308H51.997V50.9201H49.5335V50.9259Z" fill="#FBAF17"/>
<path id="Vector_11" d="M55.8214 50.8056L55.7467 49.982H55.7754C55.896 50.0392 56.0453 50.0849 56.2348 50.125C56.4243 50.165 56.5908 50.1822 56.7286 50.1822C57.0847 50.1822 57.2627 50.0906 57.2627 49.9076C57.2627 49.8275 57.2225 49.7589 57.1478 49.7017C57.0732 49.6502 56.9756 49.6102 56.8607 49.5816C56.7459 49.5587 56.6253 49.5186 56.4932 49.4729C56.3611 49.4214 56.2405 49.3642 56.1257 49.3013C56.0109 49.2326 55.9132 49.1297 55.8386 48.9867C55.7639 48.8437 55.7237 48.6663 55.7237 48.4604C55.7237 48.1287 55.8443 47.8541 56.0912 47.6424C56.3382 47.4251 56.6827 47.3164 57.1249 47.3164C57.3259 47.3164 57.5211 47.3336 57.7221 47.3622C57.9173 47.3908 58.0666 47.4308 58.1642 47.4708L58.2331 48.2545H58.2044C57.9173 48.1515 57.6359 48.0943 57.3603 48.0943C57.0043 48.0943 56.832 48.1801 56.832 48.3575C56.832 48.4204 56.8607 48.4776 56.9181 48.5233C56.9756 48.5691 57.0502 48.6034 57.1421 48.632C57.234 48.6606 57.3373 48.6835 57.4464 48.7178C57.5555 48.7464 57.6704 48.7865 57.7795 48.8379C57.8886 48.8894 57.992 48.9466 58.0838 49.021C58.1757 49.0953 58.2504 49.1983 58.3078 49.3299C58.3652 49.4614 58.3939 49.6159 58.3939 49.7932C58.3939 49.9362 58.371 50.0735 58.3193 50.205C58.2676 50.3423 58.1929 50.4682 58.0838 50.594C57.9747 50.7198 57.8197 50.8171 57.6187 50.8914C57.4177 50.9658 57.1766 51.0058 56.9067 51.0058C56.6999 51.0058 56.4875 50.9887 56.2635 50.9486C56.0511 50.8972 55.9018 50.8571 55.8214 50.8056Z" fill="#FBAF17"/>
<path id="Vector_12" d="M62.1896 50.9259V47.3909H63.6826C63.9181 47.3909 64.1363 47.4195 64.3373 47.4824C64.5382 47.5453 64.722 47.6368 64.8828 47.7627C65.0436 47.8885 65.1756 48.0601 65.2675 48.2832C65.3594 48.5063 65.4053 48.758 65.4053 49.0497C65.4053 49.3814 65.3537 49.6732 65.256 49.9191C65.1584 50.1651 65.0149 50.3596 64.8368 50.5026C64.6531 50.6456 64.4464 50.7485 64.2109 50.8172C63.9755 50.8858 63.7113 50.9201 63.4242 50.9201H62.1896V50.9259ZM63.2807 50.1594H63.4702C64.0099 50.1594 64.2741 49.8105 64.2741 49.1069C64.2741 48.9296 64.2569 48.7751 64.2167 48.6493C64.1765 48.5234 64.1363 48.4262 64.0846 48.3633C64.0329 48.3004 63.964 48.2489 63.8721 48.2146C63.7802 48.1802 63.7056 48.1574 63.6367 48.1516C63.5735 48.1459 63.4874 48.1402 63.384 48.1402H63.2692V50.1594H63.2807Z" fill="#FBAF17"/>
<path id="Vector_13" d="M69.2699 50.9259V47.3909H71.7334V48.1745H70.361V48.7866H71.5267V49.5187H70.361V50.1308H71.7334V50.9201H69.2699V50.9259Z" fill="#FBAF17"/>
<path id="Vector_14" d="M80.0196 50.9259V50.1708H80.5192V48.5234H79.9622L80.0139 47.797H80.5135L80.5594 47.3909H81.5815V50.1708H82.0179V50.9259H80.0196Z" fill="#FBAF17"/>
<path id="Vector_15" d="M85.917 50.8171L85.8538 50.0049H85.8825C86.1467 50.125 86.4223 50.1879 86.7094 50.1879C86.9678 50.1879 87.1516 50.125 87.2492 50.0049C87.3468 49.8847 87.4158 49.7017 87.4387 49.4672C87.2435 49.6445 87.0195 49.7303 86.7554 49.7303C86.3994 49.7303 86.1295 49.6273 85.9457 49.4271C85.7619 49.2212 85.6701 48.9524 85.6701 48.6206C85.6701 48.2031 85.8022 47.8827 86.0663 47.6596C86.3304 47.4366 86.6692 47.3279 87.0827 47.3279C87.5593 47.3279 87.9211 47.4709 88.168 47.7512C88.4092 48.0372 88.5355 48.4319 88.5355 48.9467C88.5355 50.308 87.9842 50.9887 86.876 50.9887C86.474 50.9887 86.1524 50.9315 85.917 50.8171ZM87.0827 49.0039C87.3181 49.0039 87.433 48.838 87.433 48.5119C87.433 48.2202 87.3181 48.0772 87.0942 48.0772C86.853 48.0772 86.7382 48.2374 86.7382 48.552C86.7324 48.8494 86.8473 49.0039 87.0827 49.0039Z" fill="#FBAF17"/>
<path id="Vector_16" d="M92.136 48.6722V47.3909H94.8751V48.1345L93.8816 50.9259H92.7045L93.6864 48.186H92.9973V48.6035L92.136 48.6722Z" fill="#FBAF17"/>
<path id="Vector_17" d="M100.043 47.322C100.526 47.322 100.899 47.4707 101.163 47.7682C101.427 48.0656 101.559 48.5232 101.559 49.1353C101.559 49.7702 101.421 50.2335 101.151 50.5367C100.882 50.8341 100.497 50.9886 100.003 50.9886C99.5206 50.9886 99.1474 50.8399 98.889 50.5424C98.6248 50.245 98.4985 49.7816 98.4985 49.1524C98.4985 48.5404 98.6363 48.0828 98.9119 47.7796C99.1876 47.4765 99.5666 47.322 100.043 47.322ZM99.6929 49.9761C99.7618 50.1306 99.8652 50.2049 100.014 50.2049C100.164 50.2049 100.273 50.1306 100.348 49.9818C100.422 49.8331 100.457 49.5528 100.457 49.1467C100.457 48.7463 100.422 48.4718 100.348 48.323C100.273 48.1743 100.169 48.0999 100.02 48.0999C99.8766 48.0999 99.7733 48.1743 99.6986 48.323C99.624 48.4718 99.5895 48.7349 99.5895 49.1124C99.5953 49.5414 99.6297 49.8274 99.6929 49.9761Z" fill="#FBAF17"/>
</g>
</g>
<g id="Group_6">
<g id="Group_7">
<path id="Vector_18" d="M1.98685 10.6852V2.25952H7.85553V4.12426H4.58814V5.58859H7.36743V7.33321H4.58814V8.79754H7.85553V10.6852H1.98685Z" fill="white"/>
<path id="Vector_19" d="M8.96955 10.6852V2.25952H11.5708V8.76322H14.7349V10.6852H8.96955Z" fill="white"/>
<path id="Vector_20" d="M15.8144 10.6851V2.25942H21.6831V4.12416H18.4157V5.58849H21.195V7.33311H18.4157V8.79744H21.6831V10.6851H15.8144ZM17.5486 1.67598L18.8177 0H21.6314L19.5584 1.67598H17.5486Z" fill="white"/>
<path id="Vector_21" d="M22.1769 4.24438V2.25952H29.3951V4.23866H27.1211V10.6852H24.5198V4.24438H22.1769Z" fill="white"/>
<path id="Vector_22" d="M32.8175 10.6852H30.2162V2.25952H33.943C35.1432 2.25952 36.0217 2.47688 36.5615 2.91733C37.107 3.35205 37.3769 4.0213 37.3769 4.90791C37.3769 5.97756 36.9061 6.77264 35.9701 7.28745L37.8478 10.6852H35.0111L33.5468 7.76793H32.8175V10.6852ZM32.8175 6.17776H33.5698C33.9143 6.17776 34.2014 6.08052 34.4254 5.89176C34.6493 5.69727 34.7642 5.41127 34.7642 5.02803C34.7642 4.61618 34.6723 4.3359 34.4828 4.1929C34.2933 4.0499 34.0234 3.97554 33.6616 3.97554H32.8175V6.17776Z" fill="white"/>
<path id="Vector_23" d="M41.1841 2.25952V10.6852H38.6058V2.25952H41.1841Z" fill="white"/>
<path id="Vector_24" d="M47.093 8.89472C47.7419 8.89472 48.3965 8.76888 49.0511 8.50576H49.12L48.9191 10.4391C48.6951 10.5478 48.3506 10.6451 47.8912 10.7309C47.4318 10.8167 46.9954 10.8567 46.5704 10.8567C45.1119 10.8567 44.0208 10.4735 43.3088 9.70125C42.591 8.93476 42.235 7.90515 42.235 6.62386C42.235 5.27393 42.6082 4.17568 43.349 3.33483C44.0897 2.49398 45.1808 2.07642 46.6164 2.07642C47.4146 2.07642 48.1381 2.19654 48.787 2.43678L48.9994 4.42736H48.9305C48.2644 4.18712 47.6213 4.067 46.9954 4.067C46.3695 4.067 45.8699 4.25576 45.4909 4.62756C45.1119 5.00508 44.9224 5.60569 44.9224 6.44082C44.9224 7.19015 45.1061 7.78503 45.4736 8.21975C45.8412 8.67736 46.3809 8.89472 47.093 8.89472Z" fill="white"/>
<path id="Vector_25" d="M49.367 10.6852L52.353 2.25952H55.362L58.302 10.6852H55.6204L55.115 9.07782H52.5023L52.0199 10.6852H49.367ZM53.7943 4.29014L52.9042 7.39613H54.7303L53.8058 4.29014H53.7943Z" fill="white"/>
</g>
</g>
<path id="Vector_26" d="M144.007 48.7063H111.281V49.6101H144.007V48.7063Z" fill="#FBAF17"/>
<path id="Vector_27" d="M33.7593 48.7063H1.03362V49.6101H33.7593V48.7063Z" fill="#FBAF17"/>
</g>
</g>
<defs>
<clipPath id="clip0_7_183">
<rect width="145" height="51" fill="white"/>
</clipPath>
</defs>
</svg>
